# Blender 4.3.0
# www.blender.org
mtllib grass_6obj.mtl
o GrassBunch4.016
v 0.080908 0.001379 -0.109807
v 0.211465 0.000000 -0.090508
v 0.132036 0.000000 -0.231477
v 0.112157 0.158302 -0.127415
v 0.227144 0.130139 -0.099343
v 0.147715 0.130139 -0.240311
v 0.339020 0.441359 -0.255241
v 0.226863 0.359973 -0.192046
v 0.235852 0.328177 -0.270640
v 0.298745 0.328177 -0.159019
v -0.133952 -0.015894 -0.522416
v -0.133357 0.006583 -0.353646
v 0.004258 0.006583 -0.425558
v -0.123155 0.152018 -0.501755
v -0.129465 0.136033 -0.341744
v 0.011807 0.136033 -0.415567
v -0.036606 0.555775 -0.336129
v -0.089833 0.317459 -0.437987
v 0.008514 0.355147 -0.357135
v -0.079615 0.355147 -0.311082
v -0.129415 -0.002243 -0.065526
v -0.270059 0.000826 -0.007432
v -0.151383 0.000826 0.085050
v -0.153033 0.294473 -0.035219
v -0.286502 0.239563 0.013732
v -0.167888 0.239563 0.106165
v -0.313367 0.588659 0.170528
v -0.220109 0.516478 0.050856
v -0.232819 0.479323 0.159275
v -0.322136 0.479323 0.089671
v -0.017224 -0.003637 -0.076950
v 0.012152 0.001506 0.053102
v 0.109003 0.001506 -0.034017
v 0.017311 0.224521 -0.038558
v 0.042730 0.205569 0.087802
v 0.140284 0.205569 0.000051
v 0.216953 0.630237 0.183386
v 0.088838 0.452587 0.040959
v 0.189481 0.460813 0.079749
v 0.116793 0.460813 0.145133
v 0.075904 -0.015894 -0.294124
v -0.060821 0.006583 -0.195183
v 0.077868 0.006583 -0.125365
v 0.065422 0.152018 -0.273302
v -0.068218 0.136033 -0.185078
v 0.074157 0.136033 -0.113405
v -0.018606 0.555775 -0.106383
v 0.033071 0.317459 -0.209037
v 0.024778 0.355147 -0.081991
v -0.064039 0.355147 -0.126702
v -0.078140 0.001379 -0.142978
v -0.179292 0.000000 -0.227748
v -0.185382 0.000000 -0.066057
v -0.113983 0.158302 -0.144328
v -0.197275 0.130139 -0.228426
v -0.203366 0.130139 -0.066734
v -0.374195 0.441359 -0.154129
v -0.245551 0.359973 -0.149284
v -0.294342 0.328177 -0.087016
v -0.289519 0.328177 -0.215045
v -0.511200 0.001379 -0.484808
v -0.380643 0.000000 -0.465509
v -0.460072 0.000000 -0.606478
v -0.479951 0.158302 -0.502416
v -0.364964 0.130139 -0.474344
v -0.444393 0.130139 -0.615312
v -0.253088 0.441359 -0.630242
v -0.365245 0.359973 -0.567047
v -0.356256 0.328177 -0.645641
v -0.293363 0.328177 -0.534020
v -0.726059 -0.015894 -0.897416
v -0.725465 0.006583 -0.728647
v -0.587849 0.006583 -0.800559
v -0.715263 0.152018 -0.876756
v -0.721573 0.136033 -0.716745
v -0.580300 0.136033 -0.790568
v -0.628714 0.555775 -0.711130
v -0.681941 0.317459 -0.812988
v -0.583594 0.355147 -0.732136
v -0.671723 0.355147 -0.686083
v -0.721523 -0.002243 -0.440527
v -0.862167 0.000826 -0.382433
v -0.743491 0.000826 -0.289951
v -0.745141 0.294473 -0.410220
v -0.878610 0.239563 -0.361269
v -0.759996 0.239563 -0.268836
v -0.905475 0.588659 -0.204473
v -0.812217 0.516478 -0.324145
v -0.824926 0.479323 -0.215726
v -0.914244 0.479323 -0.285330
v -0.609332 -0.003637 -0.451951
v -0.579955 0.001506 -0.321899
v -0.483105 0.001506 -0.409018
v -0.574797 0.224521 -0.413559
v -0.549377 0.205569 -0.287199
v -0.451824 0.205569 -0.374950
v -0.375155 0.630237 -0.191615
v -0.503270 0.452587 -0.334042
v -0.402627 0.460813 -0.295251
v -0.475314 0.460813 -0.229868
v -0.516203 -0.015894 -0.669125
v -0.652929 0.006583 -0.570184
v -0.514239 0.006583 -0.500366
v -0.526685 0.152018 -0.648303
v -0.660326 0.136033 -0.560079
v -0.517950 0.136033 -0.488406
v -0.610713 0.555775 -0.481384
v -0.559037 0.317459 -0.584038
v -0.567330 0.355147 -0.456992
v -0.656147 0.355147 -0.501703
v -0.670248 0.001379 -0.517979
v -0.771400 0.000000 -0.602749
v -0.777490 0.000000 -0.441058
v -0.706091 0.158302 -0.519329
v -0.789383 0.130139 -0.603427
v -0.795474 0.130139 -0.441735
v -0.966303 0.441359 -0.529130
v -0.837659 0.359973 -0.524285
v -0.886450 0.328177 -0.462017
v -0.881627 0.328177 -0.590046
v -0.609884 0.001379 0.205983
v -0.479327 0.000000 0.225282
v -0.558756 0.000000 0.084313
v -0.578635 0.158302 0.188376
v -0.463648 0.130139 0.216448
v -0.543077 0.130139 0.075479
v -0.351772 0.441359 0.060549
v -0.463929 0.359973 0.123744
v -0.454940 0.328177 0.045150
v -0.392047 0.328177 0.156771
v -0.824744 -0.015894 -0.206625
v -0.824149 0.006583 -0.037856
v -0.686534 0.006583 -0.109768
v -0.813947 0.152018 -0.185964
v -0.820257 0.136033 -0.025954
v -0.678985 0.136033 -0.099777
v -0.727398 0.555775 -0.020338
v -0.780625 0.317459 -0.122197
v -0.682278 0.355147 -0.041344
v -0.770407 0.355147 0.004708
v -0.820208 -0.002243 0.250265
v -0.960851 0.000826 0.308358
v -0.842175 0.000826 0.400840
v -0.843825 0.294473 0.280571
v -0.977294 0.239563 0.329522
v -0.858680 0.239563 0.421956
v -1.004159 0.588659 0.486318
v -0.910901 0.516478 0.366646
v -0.923611 0.479323 0.475065
v -1.012928 0.479323 0.405461
v -0.708016 -0.003637 0.238840
v -0.678640 0.001506 0.368892
v -0.581789 0.001506 0.281773
v -0.673482 0.224521 0.277233
v -0.648062 0.205569 0.403593
v -0.550508 0.205569 0.315842
v -0.473839 0.630237 0.499176
v -0.601954 0.452587 0.356750
v -0.501311 0.460813 0.395540
v -0.573999 0.460813 0.460923
v -0.614888 -0.015894 0.021666
v -0.751614 0.006583 0.120608
v -0.612924 0.006583 0.190425
v -0.625370 0.152018 0.042489
v -0.759010 0.136033 0.130713
v -0.616635 0.136033 0.202385
v -0.709398 0.555775 0.209408
v -0.657721 0.317459 0.106754
v -0.666014 0.355147 0.233799
v -0.754831 0.355147 0.189088
v -0.768933 0.001379 0.172813
v -0.870084 0.000000 0.088042
v -0.876174 0.000000 0.249734
v -0.804775 0.158302 0.171463
v -0.888067 0.130139 0.087365
v -0.894158 0.130139 0.249056
v -1.064987 0.441359 0.161661
v -0.936343 0.359973 0.166507
v -0.985134 0.328177 0.228774
v -0.980311 0.328177 0.100745
v 1.374992 0.001379 -0.147499
v 1.505550 0.000000 -0.128200
v 1.426121 0.000000 -0.269169
v 1.406242 0.158302 -0.165107
v 1.521229 0.130139 -0.137034
v 1.441799 0.130139 -0.278003
v 1.633104 0.441359 -0.292933
v 1.520947 0.359973 -0.229738
v 1.529937 0.328177 -0.308332
v 1.592830 0.328177 -0.196711
v 1.160133 -0.015894 -0.560107
v 1.160728 0.006583 -0.391338
v 1.298343 0.006583 -0.463250
v 1.170929 0.152018 -0.539446
v 1.164619 0.136033 -0.379436
v 1.305892 0.136033 -0.453259
v 1.257478 0.555775 -0.373820
v 1.204251 0.317459 -0.475679
v 1.302599 0.355147 -0.394826
v 1.214469 0.355147 -0.348774
v 1.164669 -0.002243 -0.103218
v 1.024025 0.000826 -0.045124
v 1.142701 0.000826 0.047358
v 1.141052 0.294473 -0.072911
v 1.007583 0.239563 -0.023960
v 1.126197 0.239563 0.068473
v 0.980717 0.588659 0.132836
v 1.073975 0.516478 0.013164
v 1.061266 0.479323 0.121583
v 0.971948 0.479323 0.051979
v 1.276860 -0.003637 -0.114642
v 1.306237 0.001506 0.015410
v 1.403087 0.001506 -0.071709
v 1.311395 0.224521 -0.076250
v 1.336815 0.205569 0.050110
v 1.434368 0.205569 -0.037640
v 1.511037 0.630237 0.145694
v 1.382922 0.452587 0.003267
v 1.483565 0.460813 0.042058
v 1.410878 0.460813 0.107441
v 1.369989 -0.015894 -0.331816
v 1.233263 0.006583 -0.232874
v 1.371953 0.006583 -0.163057
v 1.359507 0.152018 -0.310994
v 1.225866 0.136033 -0.222770
v 1.368242 0.136033 -0.151097
v 1.275479 0.555775 -0.144075
v 1.327155 0.317459 -0.246729
v 1.318863 0.355147 -0.119683
v 1.230045 0.355147 -0.164394
v 1.215944 0.001379 -0.180670
v 1.114793 0.000000 -0.265440
v 1.108702 0.000000 -0.103749
v 1.180101 0.158302 -0.182020
v 1.096809 0.130139 -0.266118
v 1.090719 0.130139 -0.104426
v 0.919890 0.441359 -0.191821
v 1.048533 0.359973 -0.186976
v 0.999743 0.328177 -0.124708
v 1.004565 0.328177 -0.252737
v 0.684200 0.001379 0.168291
v 0.814758 0.000000 0.187590
v 0.735328 0.000000 0.046621
v 0.715450 0.158302 0.150684
v 0.830437 0.130139 0.178756
v 0.751007 0.130139 0.037787
v 0.942312 0.441359 0.022858
v 0.830155 0.359973 0.086053
v 0.839144 0.328177 0.007459
v 0.902038 0.328177 0.119080
v 0.469341 -0.015894 -0.244317
v 0.469936 0.006583 -0.075548
v 0.607551 0.006583 -0.147460
v 0.480137 0.152018 -0.223656
v 0.473827 0.136033 -0.063645
v 0.615100 0.136033 -0.137468
v 0.566686 0.555775 -0.058030
v 0.513459 0.317459 -0.159889
v 0.611807 0.355147 -0.079036
v 0.523677 0.355147 -0.032983
v 0.473877 -0.002243 0.212573
v 0.333233 0.000826 0.270666
v 0.451909 0.000826 0.363148
v 0.450260 0.294473 0.242879
v 0.316790 0.239563 0.291830
v 0.435405 0.239563 0.384264
v 0.289925 0.588659 0.448626
v 0.383183 0.516478 0.328954
v 0.370474 0.479323 0.437373
v 0.281156 0.479323 0.367770
v 0.586068 -0.003637 0.201149
v 0.615445 0.001506 0.331201
v 0.712295 0.001506 0.244082
v 0.620603 0.224521 0.239541
v 0.646023 0.205569 0.365901
v 0.743576 0.205569 0.278150
v 0.820245 0.630237 0.461484
v 0.692130 0.452587 0.319058
v 0.792773 0.460813 0.357848
v 0.720086 0.460813 0.423232
v 0.679197 -0.015894 -0.016025
v 0.542471 0.006583 0.082916
v 0.681161 0.006583 0.152733
v 0.668715 0.152018 0.004797
v 0.535074 0.136033 0.093021
v 0.677450 0.136033 0.164693
v 0.584687 0.555775 0.171716
v 0.636363 0.317459 0.069062
v 0.628070 0.355147 0.196108
v 0.539253 0.355147 0.151396
v 0.525152 0.001379 0.135121
v 0.424001 0.000000 0.050350
v 0.417910 0.000000 0.212042
v 0.489309 0.158302 0.133771
v 0.406017 0.130139 0.049673
v 0.399927 0.130139 0.211364
v 0.229098 0.441359 0.123969
v 0.357741 0.359973 0.128815
v 0.308951 0.328177 0.191082
v 0.313773 0.328177 0.063053
v 0.782885 0.001379 -0.522500
v 0.913442 0.000000 -0.503201
v 0.834013 0.000000 -0.644170
v 0.814134 0.158302 -0.540107
v 0.929121 0.130139 -0.512035
v 0.849692 0.130139 -0.653004
v 1.040996 0.441359 -0.667934
v 0.928840 0.359973 -0.604739
v 0.937829 0.328177 -0.683333
v 1.000722 0.328177 -0.571712
v 0.568025 -0.015894 -0.935108
v 0.568620 0.006583 -0.766339
v 0.706235 0.006583 -0.838251
v 0.578822 0.152018 -0.914447
v 0.572512 0.136033 -0.754437
v 0.713784 0.136033 -0.828260
v 0.665371 0.555775 -0.748821
v 0.612144 0.317459 -0.850680
v 0.710491 0.355147 -0.769827
v 0.622362 0.355147 -0.723775
v 0.572561 -0.002243 -0.478219
v 0.431918 0.000826 -0.420125
v 0.550594 0.000826 -0.327643
v 0.548944 0.294473 -0.447912
v 0.415475 0.239563 -0.398961
v 0.534089 0.239563 -0.306528
v 0.388610 0.588659 -0.242165
v 0.481867 0.516478 -0.361837
v 0.469158 0.479323 -0.253418
v 0.379840 0.479323 -0.323022
v 0.684753 -0.003637 -0.489643
v 0.714129 0.001506 -0.359591
v 0.810980 0.001506 -0.446710
v 0.719287 0.224521 -0.451251
v 0.744707 0.205569 -0.324890
v 0.842260 0.205569 -0.412641
v 0.918930 0.630237 -0.229307
v 0.790814 0.452587 -0.371733
v 0.891457 0.460813 -0.332943
v 0.818770 0.460813 -0.267560
v 0.777881 -0.015894 -0.706817
v 0.641155 0.006583 -0.607875
v 0.779845 0.006583 -0.538058
v 0.767399 0.152018 -0.685995
v 0.633759 0.136033 -0.597771
v 0.776134 0.136033 -0.526098
v 0.683371 0.555775 -0.519076
v 0.735048 0.317459 -0.621729
v 0.726755 0.355147 -0.494684
v 0.637937 0.355147 -0.539395
v 0.623836 0.001379 -0.555671
v 0.522685 0.000000 -0.640441
v 0.516594 0.000000 -0.478750
v 0.587993 0.158302 -0.557021
v 0.504701 0.130139 -0.641119
v 0.498611 0.130139 -0.479427
v 0.327782 0.441359 -0.566822
v 0.456426 0.359973 -0.561977
v 0.407635 0.328177 -0.499709
v 0.412457 0.328177 -0.627738
vn -0.9264 0.1185 -0.3573
vn 0.8630 -0.1370 -0.4863
vn -0.1743 0.1185 0.9775
vn -0.6706 0.6579 -0.3428
vn 0.7046 -0.5882 -0.3970
vn -0.0541 0.6579 0.7512
vn -0.1803 0.3677 0.9123
vn 0.7906 -0.4201 -0.4455
vn -0.8737 0.3677 -0.3184
vn 0.5551 0.0513 -0.8302
vn 0.4610 -0.0950 0.8823
vn -0.9985 0.0513 -0.0184
vn 0.5711 0.2115 -0.7932
vn 0.4631 0.0114 0.8862
vn -0.9773 0.2115 0.0159
vn -0.9773 0.2120 -0.0027
vn 0.4514 -0.2236 0.8639
vn 0.5558 0.2120 -0.8038
vn 0.9889 0.0611 0.1356
vn -0.6108 -0.1116 0.7839
vn -0.3731 0.0611 -0.9258
vn 0.7863 0.5504 0.2808
vn -0.5422 -0.4711 0.6958
vn -0.4644 0.5504 -0.6939
vn -0.4145 0.2178 -0.8836
vn -0.5818 -0.3229 0.7465
vn 0.9581 0.2178 0.1860
vn 0.3146 0.1102 -0.9428
vn 0.6522 -0.2210 0.7251
vn -0.9707 0.1102 0.2134
vn 0.2847 0.4662 -0.8376
vn 0.5827 -0.4907 0.6478
vn -0.8630 0.4662 0.1948
vn -0.9479 0.2205 0.2297
vn 0.6290 -0.3396 0.6993
vn 0.3285 0.2205 -0.9184
vn 0.9981 0.0513 -0.0335
vn -0.4476 -0.0950 0.8892
vn -0.5676 0.0513 -0.8217
vn 0.9774 0.2115 0.0011
vn -0.4496 0.0114 0.8931
vn -0.5830 0.2115 -0.7845
vn -0.5679 0.2120 -0.7953
vn -0.4383 -0.2236 0.8706
vn 0.9771 0.2120 -0.0175
vn 0.6025 0.1185 0.7893
vn -0.9899 -0.1370 -0.0373
vn 0.6601 0.1185 -0.7417
vn 0.3920 0.6579 0.6431
vn -0.8081 -0.5882 -0.0304
vn 0.4392 0.6579 -0.6118
vn 0.6311 0.3677 -0.6830
vn -0.9068 -0.4201 -0.0342
vn 0.5779 0.3677 0.7286
vn -0.5817 -0.3229 0.7465
s 0
usemtl grass.004
f 1//1 4//1 6//1 3//1
f 3//2 6//2 5//2 2//2
f 2//3 5//3 4//3 1//3
f 9//4 8//4 7//4
f 10//5 9//5 7//5
f 8//6 10//6 7//6
f 4//7 5//7 10//7 8//7
f 5//8 6//8 9//8 10//8
f 6//9 4//9 8//9 9//9
f 11//10 14//10 16//10 13//10
f 13//11 16//11 15//11 12//11
f 12//12 15//12 14//12 11//12
f 19//13 18//13 17//13
f 20//14 19//14 17//14
f 18//15 20//15 17//15
f 14//16 15//16 20//16 18//16
f 15//17 16//17 19//17 20//17
f 16//18 14//18 18//18 19//18
f 21//19 24//19 26//19 23//19
f 23//20 26//20 25//20 22//20
f 22//21 25//21 24//21 21//21
f 29//22 28//22 27//22
f 30//23 29//23 27//23
f 28//24 30//24 27//24
f 24//25 25//25 30//25 28//25
f 25//26 26//26 29//26 30//26
f 26//27 24//27 28//27 29//27
f 31//28 34//28 36//28 33//28
f 33//29 36//29 35//29 32//29
f 32//30 35//30 34//30 31//30
f 39//31 38//31 37//31
f 40//32 39//32 37//32
f 38//33 40//33 37//33
f 34//34 35//34 40//34 38//34
f 35//35 36//35 39//35 40//35
f 36//36 34//36 38//36 39//36
f 41//37 44//37 46//37 43//37
f 43//38 46//38 45//38 42//38
f 42//39 45//39 44//39 41//39
f 49//40 48//40 47//40
f 50//41 49//41 47//41
f 48//42 50//42 47//42
f 44//43 45//43 50//43 48//43
f 45//44 46//44 49//44 50//44
f 46//45 44//45 48//45 49//45
f 51//46 54//46 56//46 53//46
f 53//47 56//47 55//47 52//47
f 52//48 55//48 54//48 51//48
f 59//49 58//49 57//49
f 60//50 59//50 57//50
f 58//51 60//51 57//51
f 54//52 55//52 60//52 58//52
f 55//53 56//53 59//53 60//53
f 56//54 54//54 58//54 59//54
f 61//1 64//1 66//1 63//1
f 63//2 66//2 65//2 62//2
f 62//3 65//3 64//3 61//3
f 69//4 68//4 67//4
f 70//5 69//5 67//5
f 68//6 70//6 67//6
f 64//7 65//7 70//7 68//7
f 65//8 66//8 69//8 70//8
f 66//9 64//9 68//9 69//9
f 71//10 74//10 76//10 73//10
f 73//11 76//11 75//11 72//11
f 72//12 75//12 74//12 71//12
f 79//13 78//13 77//13
f 80//14 79//14 77//14
f 78//15 80//15 77//15
f 74//16 75//16 80//16 78//16
f 75//17 76//17 79//17 80//17
f 76//18 74//18 78//18 79//18
f 81//19 84//19 86//19 83//19
f 83//20 86//20 85//20 82//20
f 82//21 85//21 84//21 81//21
f 89//22 88//22 87//22
f 90//23 89//23 87//23
f 88//24 90//24 87//24
f 84//25 85//25 90//25 88//25
f 85//26 86//26 89//26 90//26
f 86//27 84//27 88//27 89//27
f 91//28 94//28 96//28 93//28
f 93//29 96//29 95//29 92//29
f 92//30 95//30 94//30 91//30
f 99//31 98//31 97//31
f 100//32 99//32 97//32
f 98//33 100//33 97//33
f 94//34 95//34 100//34 98//34
f 95//35 96//35 99//35 100//35
f 96//36 94//36 98//36 99//36
f 101//37 104//37 106//37 103//37
f 103//38 106//38 105//38 102//38
f 102//39 105//39 104//39 101//39
f 109//40 108//40 107//40
f 110//41 109//41 107//41
f 108//42 110//42 107//42
f 104//43 105//43 110//43 108//43
f 105//44 106//44 109//44 110//44
f 106//45 104//45 108//45 109//45
f 111//46 114//46 116//46 113//46
f 113//47 116//47 115//47 112//47
f 112//48 115//48 114//48 111//48
f 119//49 118//49 117//49
f 120//50 119//50 117//50
f 118//51 120//51 117//51
f 114//52 115//52 120//52 118//52
f 115//53 116//53 119//53 120//53
f 116//54 114//54 118//54 119//54
f 121//1 124//1 126//1 123//1
f 123//2 126//2 125//2 122//2
f 122//3 125//3 124//3 121//3
f 129//4 128//4 127//4
f 130//5 129//5 127//5
f 128//6 130//6 127//6
f 124//7 125//7 130//7 128//7
f 125//8 126//8 129//8 130//8
f 126//9 124//9 128//9 129//9
f 131//10 134//10 136//10 133//10
f 133//11 136//11 135//11 132//11
f 132//12 135//12 134//12 131//12
f 139//13 138//13 137//13
f 140//14 139//14 137//14
f 138//15 140//15 137//15
f 134//16 135//16 140//16 138//16
f 135//17 136//17 139//17 140//17
f 136//18 134//18 138//18 139//18
f 141//19 144//19 146//19 143//19
f 143//20 146//20 145//20 142//20
f 142//21 145//21 144//21 141//21
f 149//22 148//22 147//22
f 150//23 149//23 147//23
f 148//24 150//24 147//24
f 144//25 145//25 150//25 148//25
f 145//55 146//55 149//55 150//55
f 146//27 144//27 148//27 149//27
f 151//28 154//28 156//28 153//28
f 153//29 156//29 155//29 152//29
f 152//30 155//30 154//30 151//30
f 159//31 158//31 157//31
f 160//32 159//32 157//32
f 158//33 160//33 157//33
f 154//34 155//34 160//34 158//34
f 155//35 156//35 159//35 160//35
f 156//36 154//36 158//36 159//36
f 161//37 164//37 166//37 163//37
f 163//38 166//38 165//38 162//38
f 162//39 165//39 164//39 161//39
f 169//40 168//40 167//40
f 170//41 169//41 167//41
f 168//42 170//42 167//42
f 164//43 165//43 170//43 168//43
f 165//44 166//44 169//44 170//44
f 166//45 164//45 168//45 169//45
f 171//46 174//46 176//46 173//46
f 173//47 176//47 175//47 172//47
f 172//48 175//48 174//48 171//48
f 179//49 178//49 177//49
f 180//50 179//50 177//50
f 178//51 180//51 177//51
f 174//52 175//52 180//52 178//52
f 175//53 176//53 179//53 180//53
f 176//54 174//54 178//54 179//54
f 181//1 184//1 186//1 183//1
f 183//2 186//2 185//2 182//2
f 182//3 185//3 184//3 181//3
f 189//4 188//4 187//4
f 190//5 189//5 187//5
f 188//6 190//6 187//6
f 184//7 185//7 190//7 188//7
f 185//8 186//8 189//8 190//8
f 186//9 184//9 188//9 189//9
f 191//10 194//10 196//10 193//10
f 193//11 196//11 195//11 192//11
f 192//12 195//12 194//12 191//12
f 199//13 198//13 197//13
f 200//14 199//14 197//14
f 198//15 200//15 197//15
f 194//16 195//16 200//16 198//16
f 195//17 196//17 199//17 200//17
f 196//18 194//18 198//18 199//18
f 201//19 204//19 206//19 203//19
f 203//20 206//20 205//20 202//20
f 202//21 205//21 204//21 201//21
f 209//22 208//22 207//22
f 210//23 209//23 207//23
f 208//24 210//24 207//24
f 204//25 205//25 210//25 208//25
f 205//26 206//26 209//26 210//26
f 206//27 204//27 208//27 209//27
f 211//28 214//28 216//28 213//28
f 213//29 216//29 215//29 212//29
f 212//30 215//30 214//30 211//30
f 219//31 218//31 217//31
f 220//32 219//32 217//32
f 218//33 220//33 217//33
f 214//34 215//34 220//34 218//34
f 215//35 216//35 219//35 220//35
f 216//36 214//36 218//36 219//36
f 221//37 224//37 226//37 223//37
f 223//38 226//38 225//38 222//38
f 222//39 225//39 224//39 221//39
f 229//40 228//40 227//40
f 230//41 229//41 227//41
f 228//42 230//42 227//42
f 224//43 225//43 230//43 228//43
f 225//44 226//44 229//44 230//44
f 226//45 224//45 228//45 229//45
f 231//46 234//46 236//46 233//46
f 233//47 236//47 235//47 232//47
f 232//48 235//48 234//48 231//48
f 239//49 238//49 237//49
f 240//50 239//50 237//50
f 238//51 240//51 237//51
f 234//52 235//52 240//52 238//52
f 235//53 236//53 239//53 240//53
f 236//54 234//54 238//54 239//54
f 241//1 244//1 246//1 243//1
f 243//2 246//2 245//2 242//2
f 242//3 245//3 244//3 241//3
f 249//4 248//4 247//4
f 250//5 249//5 247//5
f 248//6 250//6 247//6
f 244//7 245//7 250//7 248//7
f 245//8 246//8 249//8 250//8
f 246//9 244//9 248//9 249//9
f 251//10 254//10 256//10 253//10
f 253//11 256//11 255//11 252//11
f 252//12 255//12 254//12 251//12
f 259//13 258//13 257//13
f 260//14 259//14 257//14
f 258//15 260//15 257//15
f 254//16 255//16 260//16 258//16
f 255//17 256//17 259//17 260//17
f 256//18 254//18 258//18 259//18
f 261//19 264//19 266//19 263//19
f 263//20 266//20 265//20 262//20
f 262//21 265//21 264//21 261//21
f 269//22 268//22 267//22
f 270//23 269//23 267//23
f 268//24 270//24 267//24
f 264//25 265//25 270//25 268//25
f 265//55 266//55 269//55 270//55
f 266//27 264//27 268//27 269//27
f 271//28 274//28 276//28 273//28
f 273//29 276//29 275//29 272//29
f 272//30 275//30 274//30 271//30
f 279//31 278//31 277//31
f 280//32 279//32 277//32
f 278//33 280//33 277//33
f 274//34 275//34 280//34 278//34
f 275//35 276//35 279//35 280//35
f 276//36 274//36 278//36 279//36
f 281//37 284//37 286//37 283//37
f 283//38 286//38 285//38 282//38
f 282//39 285//39 284//39 281//39
f 289//40 288//40 287//40
f 290//41 289//41 287//41
f 288//42 290//42 287//42
f 284//43 285//43 290//43 288//43
f 285//44 286//44 289//44 290//44
f 286//45 284//45 288//45 289//45
f 291//46 294//46 296//46 293//46
f 293//47 296//47 295//47 292//47
f 292//48 295//48 294//48 291//48
f 299//49 298//49 297//49
f 300//50 299//50 297//50
f 298//51 300//51 297//51
f 294//52 295//52 300//52 298//52
f 295//53 296//53 299//53 300//53
f 296//54 294//54 298//54 299//54
f 301//1 304//1 306//1 303//1
f 303//2 306//2 305//2 302//2
f 302//3 305//3 304//3 301//3
f 309//4 308//4 307//4
f 310//5 309//5 307//5
f 308//6 310//6 307//6
f 304//7 305//7 310//7 308//7
f 305//8 306//8 309//8 310//8
f 306//9 304//9 308//9 309//9
f 311//10 314//10 316//10 313//10
f 313//11 316//11 315//11 312//11
f 312//12 315//12 314//12 311//12
f 319//13 318//13 317//13
f 320//14 319//14 317//14
f 318//15 320//15 317//15
f 314//16 315//16 320//16 318//16
f 315//17 316//17 319//17 320//17
f 316//18 314//18 318//18 319//18
f 321//19 324//19 326//19 323//19
f 323//20 326//20 325//20 322//20
f 322//21 325//21 324//21 321//21
f 329//22 328//22 327//22
f 330//23 329//23 327//23
f 328//24 330//24 327//24
f 324//25 325//25 330//25 328//25
f 325//55 326//55 329//55 330//55
f 326//27 324//27 328//27 329//27
f 331//28 334//28 336//28 333//28
f 333//29 336//29 335//29 332//29
f 332//30 335//30 334//30 331//30
f 339//31 338//31 337//31
f 340//32 339//32 337//32
f 338//33 340//33 337//33
f 334//34 335//34 340//34 338//34
f 335//35 336//35 339//35 340//35
f 336//36 334//36 338//36 339//36
f 341//37 344//37 346//37 343//37
f 343//38 346//38 345//38 342//38
f 342//39 345//39 344//39 341//39
f 349//40 348//40 347//40
f 350//41 349//41 347//41
f 348//42 350//42 347//42
f 344//43 345//43 350//43 348//43
f 345//44 346//44 349//44 350//44
f 346//45 344//45 348//45 349//45
f 351//46 354//46 356//46 353//46
f 353//47 356//47 355//47 352//47
f 352//48 355//48 354//48 351//48
f 359//49 358//49 357//49
f 360//50 359//50 357//50
f 358//51 360//51 357//51
f 354//52 355//52 360//52 358//52
f 355//53 356//53 359//53 360//53
f 356//54 354//54 358//54 359//54
