# Blender 4.3.0
# www.blender.org
mtllib leaf_2.mtl
o Sphere.001
v 0.010125 0.699513 -0.707107
v 0.010125 0.251225 -0.965926
v 0.010125 -0.266413 -0.965926
v 0.010125 -0.507594 -0.866025
v 0.139534 0.958332 -0.224144
v 0.260125 0.858431 -0.433013
v 0.363678 0.699513 -0.612372
v 0.443138 0.492406 -0.750000
v 0.493088 0.251225 -0.836516
v 0.510125 -0.007594 -0.866025
v 0.493088 -0.266413 -0.836516
v 0.443138 -0.507594 -0.750000
v 0.363678 -0.714701 -0.612372
v 0.260125 -0.873620 -0.433013
v 0.139534 -0.973520 -0.224144
v 0.234269 0.958332 -0.129410
v 0.443138 0.858431 -0.250000
v 0.622497 0.699513 -0.353553
v 0.760125 0.492406 -0.433013
v 0.846641 0.251225 -0.482963
v 0.876150 -0.007594 -0.500000
v 0.846641 -0.266413 -0.482963
v 0.760125 -0.507594 -0.433013
v 0.622497 -0.714701 -0.353553
v 0.443138 -0.873620 -0.250000
v 0.234269 -0.973520 -0.129410
v 0.268944 0.958332 -0.000000
v 0.510125 0.858431 -0.000000
v 0.717232 0.699513 0.000000
v 0.876150 0.492406 0.000000
v 0.976051 0.251225 0.000000
v 1.010125 -0.007594 -0.000000
v 0.976051 -0.266413 0.000000
v 0.876150 -0.507594 0.000000
v 0.717232 -0.714701 0.000000
v 0.510125 -0.873620 -0.000000
v 0.268944 -0.973520 -0.000000
v 0.234269 0.958332 0.129410
v 0.443138 0.858431 0.250000
v 0.622497 0.699513 0.353553
v 0.760125 0.492406 0.433013
v 0.846641 0.251225 0.482963
v 0.876150 -0.007594 0.500000
v 0.846641 -0.266413 0.482963
v 0.760125 -0.507594 0.433013
v 0.622497 -0.714701 0.353553
v 0.443138 -0.873620 0.250000
v 0.234269 -0.973520 0.129410
v 0.139534 0.958332 0.224144
v 0.260125 0.858431 0.433013
v 0.363678 0.699513 0.612372
v 0.443138 0.492406 0.750000
v 0.493088 0.251225 0.836516
v 0.510125 -0.007594 0.866025
v 0.493088 -0.266413 0.836516
v 0.443138 -0.507594 0.750000
v 0.363678 -0.714701 0.612372
v 0.260125 -0.873620 0.433013
v 0.139534 -0.973520 0.224144
v 0.010125 0.958332 0.258819
v 0.010125 0.858431 0.500000
v 0.010125 0.699513 0.707107
v 0.010125 0.492406 0.866025
v 0.010125 0.251225 0.965926
v 0.010125 -0.007594 1.000000
v 0.010125 -0.266413 0.965926
v 0.010125 -0.507594 0.866025
v 0.010125 -0.714701 0.707107
v 0.010125 -0.873620 0.500000
v 0.010125 -0.973520 0.258819
v -0.119285 0.958332 0.224144
v -0.239875 0.858431 0.433013
v -0.343428 0.699513 0.612372
v -0.422888 0.492406 0.750000
v -0.472838 0.251225 0.836516
v -0.489875 -0.007594 0.866025
v -0.472838 -0.266413 0.836516
v -0.422888 -0.507594 0.750000
v -0.343428 -0.714701 0.612372
v -0.239875 -0.873620 0.433013
v -0.119285 -0.973520 0.224144
v -0.214019 0.958332 0.129410
v -0.422888 0.858431 0.250000
v -0.602247 0.699513 0.353553
v -0.739875 0.492406 0.433013
v -0.826391 0.251225 0.482963
v -0.855900 -0.007594 0.500000
v -0.826391 -0.266413 0.482963
v -0.739875 -0.507594 0.433013
v -0.602247 -0.714701 0.353553
v -0.422888 -0.873620 0.250000
v -0.214019 -0.973520 0.129410
v 0.010125 0.992406 -0.000000
v -0.248694 0.958332 -0.000000
v -0.489875 0.858431 -0.000000
v -0.696982 0.699513 -0.000000
v -0.855900 0.492406 -0.000000
v -0.955801 0.251225 -0.000000
v -0.989875 -0.007594 -0.000000
v -0.955801 -0.266413 -0.000000
v -0.855900 -0.507594 -0.000000
v -0.696982 -0.714701 -0.000000
v -0.489875 -0.873620 -0.000000
v -0.248694 -0.973520 -0.000000
v -0.214019 0.958332 -0.129410
v -0.422888 0.858431 -0.250000
v -0.602247 0.699513 -0.353553
v -0.739875 0.492406 -0.433013
v -0.826391 0.251225 -0.482963
v -0.855900 -0.007594 -0.500000
v -0.826391 -0.266413 -0.482963
v -0.739875 -0.507594 -0.433013
v -0.602247 -0.714701 -0.353553
v -0.422888 -0.873620 -0.250000
v -0.214019 -0.973520 -0.129410
v -0.119285 0.958332 -0.224144
v -0.239875 0.858431 -0.433013
v -0.343428 0.699513 -0.612372
v -0.422888 0.492406 -0.750000
v -0.472838 0.251225 -0.836516
v -0.489875 -0.007594 -0.866025
v -0.472838 -0.266413 -0.836516
v -0.422888 -0.507594 -0.750000
v -0.343428 -0.714701 -0.612372
v -0.239875 -0.873620 -0.433013
v -0.119285 -0.973520 -0.224144
v 0.010125 0.958332 -0.258819
v 0.010125 0.858431 -0.500000
v 0.010125 0.492406 -0.866025
v 0.010125 -0.007594 -1.000000
v 0.010125 -0.714701 -0.707107
v 0.010125 -0.873620 -0.500000
v 0.010125 -0.973520 -0.258819
v 0.010125 -1.007594 -0.000000
vn 0.2568 0.1262 -0.9582
vn 0.1610 0.7830 -0.6008
vn 0.1610 -0.7830 -0.6008
vn 0.2568 -0.1262 -0.9582
vn 0.2079 0.5955 -0.7760
vn 0.1020 -0.9191 -0.3807
vn 0.0350 0.9908 -0.1304
vn 0.2403 -0.3715 -0.8968
vn 0.2403 0.3715 -0.8968
vn 0.0350 -0.9908 -0.1304
vn 0.1020 0.9191 -0.3807
vn 0.2079 -0.5955 -0.7760
vn 0.5681 0.5955 -0.5681
vn 0.2787 -0.9191 -0.2787
vn 0.0955 0.9908 -0.0955
vn 0.6565 -0.3715 -0.6565
vn 0.6565 0.3715 -0.6565
vn 0.0955 -0.9908 -0.0955
vn 0.2787 0.9191 -0.2787
vn 0.5681 -0.5955 -0.5681
vn 0.7015 0.1262 -0.7015
vn 0.4398 0.7830 -0.4398
vn 0.4398 -0.7830 -0.4398
vn 0.7015 -0.1262 -0.7015
vn 0.6008 0.7830 -0.1610
vn 0.6008 -0.7830 -0.1610
vn 0.9582 -0.1262 -0.2568
vn 0.7760 0.5955 -0.2079
vn 0.3807 -0.9191 -0.1020
vn 0.1304 0.9908 -0.0350
vn 0.8968 -0.3715 -0.2403
vn 0.8968 0.3715 -0.2403
vn 0.1304 -0.9908 -0.0350
vn 0.3807 0.9191 -0.1020
vn 0.7760 -0.5955 -0.2079
vn 0.9582 0.1262 -0.2568
vn 0.8968 0.3715 0.2403
vn 0.1304 -0.9908 0.0350
vn 0.3807 0.9191 0.1020
vn 0.7760 -0.5955 0.2079
vn 0.9582 0.1262 0.2568
vn 0.6008 0.7830 0.1610
vn 0.6008 -0.7830 0.1610
vn 0.9582 -0.1262 0.2568
vn 0.7760 0.5955 0.2079
vn 0.3807 -0.9191 0.1020
vn 0.1304 0.9908 0.0350
vn 0.8968 -0.3715 0.2403
vn 0.5681 0.5955 0.5681
vn 0.2787 -0.9191 0.2787
vn 0.0955 0.9908 0.0955
vn 0.6565 -0.3715 0.6565
vn 0.6565 0.3715 0.6565
vn 0.0955 -0.9908 0.0955
vn 0.2787 0.9191 0.2787
vn 0.5681 -0.5955 0.5681
vn 0.7015 0.1262 0.7015
vn 0.4398 0.7830 0.4398
vn 0.4398 -0.7830 0.4398
vn 0.7015 -0.1262 0.7015
vn 0.2568 0.1262 0.9582
vn 0.1610 0.7830 0.6008
vn 0.1610 -0.7830 0.6008
vn 0.2568 -0.1262 0.9582
vn 0.2079 0.5955 0.7760
vn 0.1020 -0.9191 0.3807
vn 0.0350 0.9908 0.1304
vn 0.2403 -0.3715 0.8968
vn 0.2403 0.3715 0.8968
vn 0.0350 -0.9908 0.1304
vn 0.1020 0.9191 0.3807
vn 0.2079 -0.5955 0.7760
vn -0.2403 0.3715 0.8968
vn -0.0350 -0.9908 0.1304
vn -0.1020 0.9191 0.3807
vn -0.2079 -0.5955 0.7760
vn -0.2568 0.1262 0.9582
vn -0.1610 0.7830 0.6008
vn -0.1610 -0.7830 0.6008
vn -0.2568 -0.1262 0.9582
vn -0.2079 0.5955 0.7760
vn -0.1020 -0.9191 0.3807
vn -0.0350 0.9908 0.1304
vn -0.2403 -0.3715 0.8968
vn -0.7015 -0.1262 0.7015
vn -0.5681 0.5955 0.5681
vn -0.2787 -0.9191 0.2787
vn -0.0955 0.9908 0.0955
vn -0.6565 -0.3715 0.6565
vn -0.6565 0.3715 0.6565
vn -0.0955 -0.9908 0.0955
vn -0.2787 0.9191 0.2787
vn -0.5681 -0.5955 0.5681
vn -0.7015 0.1262 0.7015
vn -0.4398 0.7830 0.4398
vn -0.4398 -0.7830 0.4398
vn -0.9582 0.1262 0.2568
vn -0.6008 0.7830 0.1610
vn -0.6008 -0.7830 0.1610
vn -0.9582 -0.1262 0.2568
vn -0.7760 0.5955 0.2079
vn -0.3807 -0.9191 0.1020
vn -0.1304 0.9908 0.0350
vn -0.8968 -0.3715 0.2403
vn -0.8968 0.3715 0.2403
vn -0.1304 -0.9908 0.0350
vn -0.3807 0.9191 0.1020
vn -0.7760 -0.5955 0.2079
vn -0.8968 -0.3715 -0.2403
vn -0.8968 0.3715 -0.2403
vn -0.1304 -0.9908 -0.0350
vn -0.3807 0.9191 -0.1020
vn -0.7760 -0.5955 -0.2079
vn -0.9582 0.1262 -0.2568
vn -0.6008 0.7830 -0.1610
vn -0.6008 -0.7830 -0.1610
vn -0.9582 -0.1262 -0.2568
vn -0.7760 0.5955 -0.2079
vn -0.3807 -0.9191 -0.1020
vn -0.1304 0.9908 -0.0350
vn -0.7015 -0.1262 -0.7015
vn -0.5681 0.5955 -0.5681
vn -0.2787 -0.9191 -0.2787
vn -0.0955 0.9908 -0.0955
vn -0.6565 -0.3715 -0.6565
vn -0.6565 0.3715 -0.6565
vn -0.0955 -0.9908 -0.0955
vn -0.2787 0.9191 -0.2787
vn -0.5681 -0.5955 -0.5681
vn -0.7015 0.1262 -0.7015
vn -0.4398 0.7830 -0.4398
vn -0.4398 -0.7830 -0.4398
vn -0.2079 -0.5955 -0.7760
vn -0.2568 0.1262 -0.9582
vn -0.1610 0.7830 -0.6008
vn -0.1610 -0.7830 -0.6008
vn -0.2568 -0.1262 -0.9582
vn -0.2079 0.5955 -0.7760
vn -0.1020 -0.9191 -0.3807
vn -0.0350 0.9908 -0.1304
vn -0.2403 -0.3715 -0.8968
vn -0.2403 0.3715 -0.8968
vn -0.0350 -0.9908 -0.1304
vn -0.1020 0.9191 -0.3807
vt 0.750000 0.500000
vt 0.750000 0.583333
vt 0.666667 0.583333
vt 0.666667 0.500000
vt 0.750000 0.750000
vt 0.750000 0.833333
vt 0.666667 0.833333
vt 0.666667 0.750000
vt 0.750000 0.166667
vt 0.750000 0.250000
vt 0.666667 0.250000
vt 0.666667 0.166667
vt 0.750000 0.416667
vt 0.666667 0.416667
vt 0.750000 0.666667
vt 0.666667 0.666667
vt 0.750000 0.083333
vt 0.666667 0.083333
vt 0.750000 0.916667
vt 0.708333 1.000000
vt 0.666667 0.916667
vt 0.750000 0.333333
vt 0.666667 0.333333
vt 0.708333 0.000000
vt 0.583333 0.750000
vt 0.583333 0.666667
vt 0.583333 0.166667
vt 0.583333 0.083333
vt 0.625000 1.000000
vt 0.583333 0.916667
vt 0.583333 0.416667
vt 0.583333 0.333333
vt 0.583333 0.583333
vt 0.625000 0.000000
vt 0.583333 0.833333
vt 0.583333 0.250000
vt 0.583333 0.500000
vt 0.500000 0.833333
vt 0.500000 0.750000
vt 0.500000 0.250000
vt 0.500000 0.166667
vt 0.500000 0.500000
vt 0.500000 0.416667
vt 0.500000 0.666667
vt 0.500000 0.083333
vt 0.541667 1.000000
vt 0.500000 0.916667
vt 0.500000 0.333333
vt 0.500000 0.583333
vt 0.541667 0.000000
vt 0.416667 0.666667
vt 0.416667 0.583333
vt 0.458333 0.000000
vt 0.416667 0.083333
vt 0.416667 0.916667
vt 0.416667 0.833333
vt 0.416667 0.333333
vt 0.416667 0.250000
vt 0.416667 0.500000
vt 0.416667 0.750000
vt 0.416667 0.166667
vt 0.416667 0.416667
vt 0.458333 1.000000
vt 0.333333 0.750000
vt 0.333333 0.666667
vt 0.333333 0.166667
vt 0.333333 0.083333
vt 0.375000 1.000000
vt 0.333333 0.916667
vt 0.333333 0.416667
vt 0.333333 0.333333
vt 0.333333 0.583333
vt 0.375000 0.000000
vt 0.333333 0.833333
vt 0.333333 0.250000
vt 0.333333 0.500000
vt 0.250000 0.583333
vt 0.250000 0.500000
vt 0.250000 0.833333
vt 0.250000 0.750000
vt 0.250000 0.250000
vt 0.250000 0.166667
vt 0.250000 0.416667
vt 0.250000 0.666667
vt 0.250000 0.083333
vt 0.291667 1.000000
vt 0.250000 0.916667
vt 0.250000 0.333333
vt 0.291667 0.000000
vt 0.166667 0.666667
vt 0.166667 0.583333
vt 0.208333 0.000000
vt 0.166667 0.083333
vt 0.166667 0.916667
vt 0.166667 0.833333
vt 0.166667 0.333333
vt 0.166667 0.250000
vt 0.166667 0.500000
vt 0.166667 0.750000
vt 0.166667 0.166667
vt 0.166667 0.416667
vt 0.208333 1.000000
vt 0.083333 0.500000
vt 0.083333 0.416667
vt 0.083333 0.750000
vt 0.083333 0.666667
vt 0.083333 0.166667
vt 0.083333 0.083333
vt 0.125000 1.000000
vt 0.083333 0.916667
vt 0.083333 0.333333
vt 0.083333 0.583333
vt 0.125000 0.000000
vt 0.083333 0.833333
vt 0.083333 0.250000
vt 0.000000 0.583333
vt 0.000000 0.500000
vt 0.000000 0.833333
vt 0.000000 0.750000
vt 0.000000 0.250000
vt 0.000000 0.166667
vt 0.000000 0.416667
vt 0.000000 0.666667
vt 0.000000 0.083333
vt 0.041667 1.000000
vt 0.000000 0.916667
vt 0.000000 0.333333
vt 0.041667 0.000000
vt 1.000000 0.333333
vt 1.000000 0.416667
vt 0.916667 0.416667
vt 0.916667 0.333333
vt 1.000000 0.583333
vt 1.000000 0.666667
vt 0.916667 0.666667
vt 0.916667 0.583333
vt 0.958333 0.000000
vt 1.000000 0.083333
vt 0.916667 0.083333
vt 1.000000 0.833333
vt 1.000000 0.916667
vt 0.916667 0.916667
vt 0.916667 0.833333
vt 1.000000 0.250000
vt 0.916667 0.250000
vt 1.000000 0.500000
vt 0.916667 0.500000
vt 1.000000 0.750000
vt 0.916667 0.750000
vt 1.000000 0.166667
vt 0.916667 0.166667
vt 0.958333 1.000000
vt 0.833333 0.500000
vt 0.833333 0.416667
vt 0.833333 0.750000
vt 0.833333 0.666667
vt 0.833333 0.166667
vt 0.833333 0.083333
vt 0.875000 1.000000
vt 0.833333 0.916667
vt 0.833333 0.333333
vt 0.833333 0.583333
vt 0.875000 0.000000
vt 0.833333 0.833333
vt 0.833333 0.250000
vt 0.791667 1.000000
vt 0.791667 0.000000
s 0
f 130/1/1 2/2/1 9/3/1 10/4/1
f 1/5/2 128/6/2 6/7/2 7/8/2
f 132/9/3 131/10/3 13/11/3 14/12/3
f 3/13/4 130/1/4 10/4/4 11/14/4
f 129/15/5 1/5/5 7/8/5 8/16/5
f 133/17/6 132/9/6 14/12/6 15/18/6
f 127/19/7 93/20/7 5/21/7
f 4/22/8 3/13/8 11/14/8 12/23/8
f 2/2/9 129/15/9 8/16/9 9/3/9
f 134/24/10 133/17/10 15/18/10
f 128/6/11 127/19/11 5/21/11 6/7/11
f 131/10/12 4/22/12 12/23/12 13/11/12
f 8/16/13 7/8/13 18/25/13 19/26/13
f 15/18/14 14/12/14 25/27/14 26/28/14
f 5/21/15 93/29/15 16/30/15
f 12/23/16 11/14/16 22/31/16 23/32/16
f 9/3/17 8/16/17 19/26/17 20/33/17
f 134/34/18 15/18/18 26/28/18
f 6/7/19 5/21/19 16/30/19 17/35/19
f 13/11/20 12/23/20 23/32/20 24/36/20
f 10/4/21 9/3/21 20/33/21 21/37/21
f 7/8/22 6/7/22 17/35/22 18/25/22
f 14/12/23 13/11/23 24/36/23 25/27/23
f 11/14/24 10/4/24 21/37/24 22/31/24
f 18/25/25 17/35/25 28/38/25 29/39/25
f 25/27/26 24/36/26 35/40/26 36/41/26
f 22/31/27 21/37/27 32/42/27 33/43/27
f 19/26/28 18/25/28 29/39/28 30/44/28
f 26/28/29 25/27/29 36/41/29 37/45/29
f 16/30/30 93/46/30 27/47/30
f 23/32/31 22/31/31 33/43/31 34/48/31
f 20/33/32 19/26/32 30/44/32 31/49/32
f 134/50/33 26/28/33 37/45/33
f 17/35/34 16/30/34 27/47/34 28/38/34
f 24/36/35 23/32/35 34/48/35 35/40/35
f 21/37/36 20/33/36 31/49/36 32/42/36
f 31/49/37 30/44/37 41/51/37 42/52/37
f 134/53/38 37/45/38 48/54/38
f 28/38/39 27/47/39 38/55/39 39/56/39
f 35/40/40 34/48/40 45/57/40 46/58/40
f 32/42/41 31/49/41 42/52/41 43/59/41
f 29/39/42 28/38/42 39/56/42 40/60/42
f 36/41/43 35/40/43 46/58/43 47/61/43
f 33/43/44 32/42/44 43/59/44 44/62/44
f 30/44/45 29/39/45 40/60/45 41/51/45
f 37/45/46 36/41/46 47/61/46 48/54/46
f 27/47/47 93/63/47 38/55/47
f 34/48/48 33/43/48 44/62/48 45/57/48
f 41/51/49 40/60/49 51/64/49 52/65/49
f 48/54/50 47/61/50 58/66/50 59/67/50
f 38/55/51 93/68/51 49/69/51
f 45/57/52 44/62/52 55/70/52 56/71/52
f 42/52/53 41/51/53 52/65/53 53/72/53
f 134/73/54 48/54/54 59/67/54
f 39/56/55 38/55/55 49/69/55 50/74/55
f 46/58/56 45/57/56 56/71/56 57/75/56
f 43/59/57 42/52/57 53/72/57 54/76/57
f 40/60/58 39/56/58 50/74/58 51/64/58
f 47/61/59 46/58/59 57/75/59 58/66/59
f 44/62/60 43/59/60 54/76/60 55/70/60
f 54/76/61 53/72/61 64/77/61 65/78/61
f 51/64/62 50/74/62 61/79/62 62/80/62
f 58/66/63 57/75/63 68/81/63 69/82/63
f 55/70/64 54/76/64 65/78/64 66/83/64
f 52/65/65 51/64/65 62/80/65 63/84/65
f 59/67/66 58/66/66 69/82/66 70/85/66
f 49/69/67 93/86/67 60/87/67
f 56/71/68 55/70/68 66/83/68 67/88/68
f 53/72/69 52/65/69 63/84/69 64/77/69
f 134/89/70 59/67/70 70/85/70
f 50/74/71 49/69/71 60/87/71 61/79/71
f 57/75/72 56/71/72 67/88/72 68/81/72
f 64/77/73 63/84/73 74/90/73 75/91/73
f 134/92/74 70/85/74 81/93/74
f 61/79/75 60/87/75 71/94/75 72/95/75
f 68/81/76 67/88/76 78/96/76 79/97/76
f 65/78/77 64/77/77 75/91/77 76/98/77
f 62/80/78 61/79/78 72/95/78 73/99/78
f 69/82/79 68/81/79 79/97/79 80/100/79
f 66/83/80 65/78/80 76/98/80 77/101/80
f 63/84/81 62/80/81 73/99/81 74/90/81
f 70/85/82 69/82/82 80/100/82 81/93/82
f 60/87/83 93/102/83 71/94/83
f 67/88/84 66/83/84 77/101/84 78/96/84
f 77/101/85 76/98/85 87/103/85 88/104/85
f 74/90/86 73/99/86 84/105/86 85/106/86
f 81/93/87 80/100/87 91/107/87 92/108/87
f 71/94/88 93/109/88 82/110/88
f 78/96/89 77/101/89 88/104/89 89/111/89
f 75/91/90 74/90/90 85/106/90 86/112/90
f 134/113/91 81/93/91 92/108/91
f 72/95/92 71/94/92 82/110/92 83/114/92
f 79/97/93 78/96/93 89/111/93 90/115/93
f 76/98/94 75/91/94 86/112/94 87/103/94
f 73/99/95 72/95/95 83/114/95 84/105/95
f 80/100/96 79/97/96 90/115/96 91/107/96
f 87/103/97 86/112/97 98/116/97 99/117/97
f 84/105/98 83/114/98 95/118/98 96/119/98
f 91/107/99 90/115/99 102/120/99 103/121/99
f 88/104/100 87/103/100 99/117/100 100/122/100
f 85/106/101 84/105/101 96/119/101 97/123/101
f 92/108/102 91/107/102 103/121/102 104/124/102
f 82/110/103 93/125/103 94/126/103
f 89/111/104 88/104/104 100/122/104 101/127/104
f 86/112/105 85/106/105 97/123/105 98/116/105
f 134/128/106 92/108/106 104/124/106
f 83/114/107 82/110/107 94/126/107 95/118/107
f 90/115/108 89/111/108 101/127/108 102/120/108
f 101/129/109 100/130/109 111/131/109 112/132/109
f 98/133/110 97/134/110 108/135/110 109/136/110
f 134/137/111 104/138/111 115/139/111
f 95/140/112 94/141/112 105/142/112 106/143/112
f 102/144/113 101/129/113 112/132/113 113/145/113
f 99/146/114 98/133/114 109/136/114 110/147/114
f 96/148/115 95/140/115 106/143/115 107/149/115
f 103/150/116 102/144/116 113/145/116 114/151/116
f 100/130/117 99/146/117 110/147/117 111/131/117
f 97/134/118 96/148/118 107/149/118 108/135/118
f 104/138/119 103/150/119 114/151/119 115/139/119
f 94/141/120 93/152/120 105/142/120
f 111/131/121 110/147/121 121/153/121 122/154/121
f 108/135/122 107/149/122 118/155/122 119/156/122
f 115/139/123 114/151/123 125/157/123 126/158/123
f 105/142/124 93/159/124 116/160/124
f 112/132/125 111/131/125 122/154/125 123/161/125
f 109/136/126 108/135/126 119/156/126 120/162/126
f 134/163/127 115/139/127 126/158/127
f 106/143/128 105/142/128 116/160/128 117/164/128
f 113/145/129 112/132/129 123/161/129 124/165/129
f 110/147/130 109/136/130 120/162/130 121/153/130
f 107/149/131 106/143/131 117/164/131 118/155/131
f 114/151/132 113/145/132 124/165/132 125/157/132
f 124/165/133 123/161/133 4/22/133 131/10/133
f 121/153/134 120/162/134 2/2/134 130/1/134
f 118/155/135 117/164/135 128/6/135 1/5/135
f 125/157/136 124/165/136 131/10/136 132/9/136
f 122/154/137 121/153/137 130/1/137 3/13/137
f 119/156/138 118/155/138 1/5/138 129/15/138
f 126/158/139 125/157/139 132/9/139 133/17/139
f 116/160/140 93/166/140 127/19/140
f 123/161/141 122/154/141 3/13/141 4/22/141
f 120/162/142 119/156/142 129/15/142 2/2/142
f 134/167/143 126/158/143 133/17/143
f 117/164/144 116/160/144 127/19/144 128/6/144
