# Blender 4.3.0
# www.blender.org
mtllib Palett.mtl
o Cube.009
v 0.076640 -0.133747 -0.907614
v 0.083061 0.001132 -0.908322
v 0.285890 -0.143707 -0.907561
v 0.292311 -0.008829 -0.908270
v 0.076640 -0.126225 0.523886
v 0.083061 0.008653 0.523177
v 0.285890 -0.136186 0.523938
v 0.292311 -0.001307 0.523230
v -1.102360 -0.016828 -0.696811
v -1.096754 0.100940 -0.697430
v -1.102360 -0.017929 -0.906295
v -1.096754 0.099839 -0.906914
v 1.319377 -0.132105 -0.696206
v 1.324983 -0.014336 -0.696824
v 1.319377 -0.133205 -0.905690
v 1.324983 -0.015437 -0.906309
v -1.102360 -0.014415 -0.237551
v -1.096754 0.103353 -0.238170
v -1.102360 -0.015516 -0.447035
v -1.096754 0.102252 -0.447654
v 1.319377 -0.129692 -0.236945
v 1.324983 -0.011923 -0.237564
v 1.319377 -0.130792 -0.446429
v 1.324983 -0.013024 -0.447048
v -1.102360 -0.012276 0.169718
v -1.096754 0.105493 0.169099
v -1.102360 -0.013376 -0.039766
v -1.096754 0.104392 -0.040385
v 1.319377 -0.127552 0.170324
v 1.324983 -0.009783 0.169705
v 1.319377 -0.128653 -0.039160
v 1.324983 -0.010884 -0.039779
v -1.103905 -0.077496 -0.902793
v -1.097485 0.057382 -0.903501
v -0.894655 -0.087457 -0.902740
v -0.888235 0.047422 -0.903449
v -1.103905 -0.069975 0.528707
v -1.097485 0.064904 0.527998
v -0.894655 -0.079935 0.528759
v -0.888235 0.054943 0.528051
v 1.107221 -0.193670 -0.899296
v 1.113642 -0.058792 -0.900005
v 1.316471 -0.203631 -0.899244
v 1.322891 -0.068752 -0.899952
v 1.107221 -0.186149 0.532203
v 1.113642 -0.051270 0.531495
v 1.316471 -0.196109 0.532256
v 1.322891 -0.061231 0.531547
v -1.099482 -0.010614 0.527579
v -1.093876 0.107154 0.526960
v -1.099482 -0.011715 0.318095
v -1.093876 0.106054 0.317476
v 1.322255 -0.125891 0.528185
v 1.327861 -0.008122 0.527566
v 1.322255 -0.126991 0.318701
v 1.327861 -0.009223 0.318082
vn -0.0000 -0.0053 -1.0000
vn 0.9989 -0.0475 0.0002
vn -0.0000 0.0053 1.0000
vn -0.9989 0.0475 -0.0002
vn -0.0475 -0.9989 0.0052
vn 0.0475 0.9989 -0.0052
vt 0.375000 0.000000
vt 0.625000 0.000000
vt 0.625000 0.250000
vt 0.375000 0.250000
vt 0.625000 0.500000
vt 0.375000 0.500000
vt 0.625000 0.750000
vt 0.375000 0.750000
vt 0.625000 1.000000
vt 0.375000 1.000000
vt 0.125000 0.500000
vt 0.125000 0.750000
vt 0.875000 0.500000
vt 0.875000 0.750000
s 0
usemtl Material.015
f 1/1/1 2/2/1 4/3/1 3/4/1
f 3/4/2 4/3/2 8/5/2 7/6/2
f 7/6/3 8/5/3 6/7/3 5/8/3
f 5/8/4 6/7/4 2/9/4 1/10/4
f 3/11/5 7/6/5 5/8/5 1/12/5
f 8/5/6 4/13/6 2/14/6 6/7/6
f 9/1/4 10/2/4 12/3/4 11/4/4
f 11/4/1 12/3/1 16/5/1 15/6/1
f 15/6/2 16/5/2 14/7/2 13/8/2
f 13/8/3 14/7/3 10/9/3 9/10/3
f 11/11/5 15/6/5 13/8/5 9/12/5
f 16/5/6 12/13/6 10/14/6 14/7/6
f 17/1/4 18/2/4 20/3/4 19/4/4
f 19/4/1 20/3/1 24/5/1 23/6/1
f 23/6/2 24/5/2 22/7/2 21/8/2
f 21/8/3 22/7/3 18/9/3 17/10/3
f 19/11/5 23/6/5 21/8/5 17/12/5
f 24/5/6 20/13/6 18/14/6 22/7/6
f 25/1/4 26/2/4 28/3/4 27/4/4
f 27/4/1 28/3/1 32/5/1 31/6/1
f 31/6/2 32/5/2 30/7/2 29/8/2
f 29/8/3 30/7/3 26/9/3 25/10/3
f 27/11/5 31/6/5 29/8/5 25/12/5
f 32/5/6 28/13/6 26/14/6 30/7/6
f 33/1/1 34/2/1 36/3/1 35/4/1
f 35/4/2 36/3/2 40/5/2 39/6/2
f 39/6/3 40/5/3 38/7/3 37/8/3
f 37/8/4 38/7/4 34/9/4 33/10/4
f 35/11/5 39/6/5 37/8/5 33/12/5
f 40/5/6 36/13/6 34/14/6 38/7/6
f 41/1/1 42/2/1 44/3/1 43/4/1
f 43/4/2 44/3/2 48/5/2 47/6/2
f 47/6/3 48/5/3 46/7/3 45/8/3
f 45/8/4 46/7/4 42/9/4 41/10/4
f 43/11/5 47/6/5 45/8/5 41/12/5
f 48/5/6 44/13/6 42/14/6 46/7/6
f 49/1/4 50/2/4 52/3/4 51/4/4
f 51/4/1 52/3/1 56/5/1 55/6/1
f 55/6/2 56/5/2 54/7/2 53/8/2
f 53/8/3 54/7/3 50/9/3 49/10/3
f 51/11/5 55/6/5 53/8/5 49/12/5
f 56/5/6 52/13/6 50/14/6 54/7/6
