# Blender 4.3.0
# www.blender.org
mtllib tree_3.mtl
o Trunk.2
v 0.043918 -0.003030 -0.559831
v 0.118752 3.794674 0.017783
v 0.427647 -0.003030 -0.488956
v 0.217695 3.778965 -0.000016
v 0.542135 -0.003030 -0.046503
v 0.292008 3.806038 0.098438
v 0.409489 -0.003030 0.273732
v 0.259595 3.777284 0.226867
v 0.043918 -0.003030 0.345930
v 0.156697 3.789607 0.304380
v -0.276317 -0.003030 0.213285
v 0.059943 3.804730 0.232631
v -0.408962 -0.003030 -0.106950
v -0.021925 3.775815 0.105977
v -0.276317 -0.003030 -0.427185
v 0.032201 3.802958 0.060019
v 0.132989 0.724203 -0.234533
v 0.196631 2.653229 -0.263259
v 0.366695 2.643955 -0.213051
v 0.359819 0.712543 -0.192080
v 0.389450 2.637574 -0.121683
v 0.405282 0.758415 0.008265
v 0.315625 2.650078 -0.000583
v 0.334025 0.733104 0.121246
v 0.237312 2.678807 0.076774
v 0.155433 0.740373 0.290605
v 0.109726 2.653781 0.050137
v -0.072775 0.722591 0.183546
v 0.048119 2.643786 -0.142624
v -0.076576 0.718963 0.004943
v 0.067414 2.648297 -0.255418
v -0.050617 0.751459 -0.165203
v 0.364971 0.258040 -0.384235
v 0.457030 0.228592 -0.104245
v 0.394466 0.262701 0.129825
v 0.121524 0.217976 0.298652
v -0.187585 0.260489 0.154939
v -0.275748 0.265114 -0.120176
v -0.193055 0.263027 -0.390702
v 0.076876 0.265844 -0.477430
v 0.060460 1.671779 -0.276286
v 0.247991 1.655248 -0.243688
v 0.279907 1.673337 -0.075119
v 0.224885 1.668222 0.044907
v 0.091246 1.694614 0.190394
v -0.093102 1.678196 0.108363
v -0.149603 1.656828 -0.104145
v -0.120282 1.688369 -0.227072
v 0.897941 3.470087 -0.347690
v 0.701992 2.987568 -0.304406
v 0.273547 2.575851 -0.221433
v 0.281992 2.493975 -0.188836
v 0.306279 2.490319 -0.094296
v 0.310824 2.586333 -0.043231
v 0.288789 2.656143 -0.074907
v 0.260777 2.657644 -0.177946
v 0.951199 3.429716 -0.327221
v 0.770366 2.932147 -0.280463
v 0.973780 3.426834 -0.244065
v 0.785545 2.949493 -0.195079
v 0.922877 3.471621 -0.206591
v 0.731939 2.986951 -0.139157
v 0.874657 3.506711 -0.234751
v 0.665259 3.013280 -0.172601
v 0.853395 3.509262 -0.300388
v 0.648885 3.025243 -0.257952
v -0.829304 2.753627 0.062272
v -0.370471 2.319230 -0.045028
v -0.044008 1.718163 -0.180297
v 0.038336 1.796309 -0.143579
v 0.076060 1.796983 -0.004367
v 0.006026 1.716964 0.088555
v -0.069056 1.619682 0.047484
v -0.107525 1.616383 -0.102339
v -0.757229 2.791990 0.085590
v -0.279218 2.364758 -0.020478
v -0.729306 2.793998 0.185439
v -0.266749 2.373564 0.076321
v -0.793975 2.745292 0.232324
v -0.327537 2.309348 0.148136
v -0.859702 2.712200 0.200029
v -0.400951 2.249474 0.101194
v -0.883687 2.707081 0.119755
v -0.424386 2.265582 0.006701
v 0.050268 4.403936 0.043653
v 0.126555 4.391825 0.029929
v 0.183852 4.412698 0.105839
v 0.158861 4.390528 0.204860
v 0.079525 4.400029 0.264625
v 0.004925 4.411690 0.209305
v -0.058197 4.389396 0.111652
v -0.016465 4.410323 0.076218
v -0.097387 4.807104 0.087373
v -0.131680 4.792852 0.115560
v -0.080338 4.806983 0.193240
v -0.021802 4.793524 0.237246
v 0.040613 4.781512 0.189705
v 0.061693 4.797695 0.110936
v 0.015053 4.784362 0.050552
v -0.044797 4.798273 0.061469
v -1.341258 3.304208 0.093692
v -1.294537 3.326044 0.108421
v -1.172825 2.950449 0.126235
v -1.155903 2.958664 0.187806
v -1.113032 2.995376 0.212577
v -1.073813 3.043521 0.176616
v -1.094239 3.036899 0.100030
v -1.140872 2.995097 0.082144
v -1.276857 3.326396 0.171489
v -1.319246 3.297792 0.201103
v -1.361790 3.279072 0.180704
v -1.377087 3.276629 0.130000
v 1.115668 3.795042 -0.293074
v 1.130342 3.793282 -0.247776
v 1.163620 3.769064 -0.228342
v 1.198750 3.738156 -0.254204
v 1.183166 3.740145 -0.311592
v 1.146411 3.768006 -0.325718
v 1.356347 4.024727 -0.289294
v 1.367180 4.028113 -0.254506
v 1.398114 4.021622 -0.239582
v 1.432451 4.011027 -0.259443
v 1.420908 4.007515 -0.303516
v 1.386392 4.015464 -0.314364
v 1.419862 4.257894 -0.280921
v -1.578863 3.560030 0.134205
v 0.038258 5.148669 0.103867
v 0.015459 5.145491 0.121338
v 0.048465 5.145927 0.169489
v 0.081464 5.128690 0.196766
v 0.117017 5.111714 0.167297
v 0.132193 5.118119 0.118472
v 0.102133 5.117425 0.081043
v 0.068417 5.135139 0.087810
v 0.097485 5.466112 0.124033
v -1.568901 3.568055 0.137858
v -1.564663 3.569186 0.153501
v -1.573181 3.559788 0.160847
v -1.582321 3.552761 0.155787
v -1.585862 3.551267 0.143211
v -1.618096 3.621746 0.142807
v -1.614500 3.624546 0.144109
v -1.612984 3.624924 0.149682
v -1.616073 3.621626 0.152299
v -1.619370 3.619176 0.150496
v -1.620640 3.618665 0.146016
v -1.621007 3.626859 0.147568
v 0.092382 5.466112 0.128403
v 0.100120 5.466112 0.140448
v 0.109344 5.466112 0.147271
v 0.119148 5.466112 0.139900
v 0.122184 5.466112 0.127686
v 0.115161 5.466112 0.118323
v 0.105728 5.466112 0.120016
v 1.422413 4.257894 -0.269418
v 1.432353 4.257894 -0.264483
v 1.443946 4.257894 -0.271050
v 1.441213 4.257894 -0.285623
v 1.430004 4.257894 -0.289211
v 0.108198 5.483016 0.130760
v 1.431349 4.267594 -0.276784
vn 0.2873 0.2130 -0.9339
vn 0.9649 0.1241 -0.2316
vn 0.8492 -0.0636 0.5242
vn 0.6806 -0.0993 0.7259
vn -0.1712 -0.1615 0.9719
vn -0.9430 -0.1260 0.3079
vn -0.9857 0.0158 -0.1680
vn -0.0678 0.2342 -0.9698
vn -0.2735 0.4763 -0.8357
vn -0.2583 0.0486 -0.9649
vn -0.8825 0.3833 -0.2727
vn -0.9658 0.1834 -0.1833
vn -0.9023 0.3148 0.2945
vn -0.9517 0.1998 0.2330
vn -0.4158 0.0471 0.9082
vn -0.4129 0.1396 0.9000
vn 0.5284 -0.0212 0.8487
vn 0.7334 -0.0304 0.6792
vn 0.9626 0.1280 0.2386
vn 0.9082 -0.0648 0.4136
vn 0.9433 0.1545 -0.2939
vn 0.9778 -0.1194 -0.1723
vn 0.2945 0.3750 -0.8790
vn 0.1721 0.0099 -0.9850
vn 0.1664 0.4012 -0.9007
vn 0.9290 0.2814 -0.2404
vn 0.8943 0.2512 0.3704
vn 0.1918 0.1404 0.9713
vn -0.3630 0.3163 0.8764
vn -0.8336 0.4312 0.3453
vn -0.8743 0.3233 -0.3621
vn -0.3634 0.3134 -0.8773
vn 0.1823 -0.0322 -0.9827
vn 0.9636 0.1098 -0.2438
vn 0.8228 0.1410 0.5505
vn 0.6856 0.1215 0.7178
vn -0.4278 0.0618 0.9017
vn -0.9969 -0.0750 0.0227
vn -0.9825 -0.0840 -0.1660
vn -0.3613 -0.0686 -0.9299
vn 0.9235 -0.3732 -0.0883
vn -0.1207 0.3783 0.9178
vn 0.1435 -0.3533 -0.9245
vn -0.8900 0.3959 0.2262
vn 0.6583 -0.1569 0.7362
vn -0.6545 0.7321 0.1886
vn 0.5555 -0.4108 0.7230
vn -0.5808 0.1643 -0.7973
vn -0.4897 0.3485 -0.7992
vn 0.6564 -0.7283 -0.1968
vn -0.3484 0.2612 0.9002
vn 0.2042 -0.1649 -0.9649
vn 0.6451 0.7490 -0.1512
vn -0.2455 -0.2101 0.9464
vn 0.1486 0.2879 -0.9461
vn -0.6863 -0.7259 0.0465
vn 0.5024 0.3884 0.7725
vn -0.8586 -0.4578 0.2305
vn 0.6324 0.2836 0.7209
vn -0.4822 -0.3067 -0.8206
vn -0.6370 -0.1771 -0.7502
vn 0.8232 0.5210 -0.2256
vn -0.2269 -0.4133 0.8819
vn 0.0875 0.3312 -0.9395
vn -0.4394 -0.0113 -0.8982
vn -0.1736 0.0223 -0.9846
vn 0.9468 0.1654 0.2760
vn -0.8329 -0.0543 0.5508
vn 0.6065 0.1278 0.7848
vn -0.6380 -0.0306 -0.7694
vn 0.7702 0.1449 -0.6212
vn -0.5978 -0.0234 0.8013
vn 0.6177 0.2118 0.7574
vn -0.6125 -0.1002 0.7841
vn -0.1793 0.0008 -0.9838
vn -0.8113 -0.1532 0.5641
vn -0.6062 -0.1015 -0.7888
vn 0.9091 0.2867 0.3022
vn -0.4500 -0.0683 -0.8904
vn 0.7409 0.2434 -0.6260
vn -0.2797 -0.2908 0.9150
vn -0.5405 -0.3214 -0.7775
vn -0.4150 -0.4714 -0.7782
vn 0.1418 0.2515 -0.9574
vn 0.2762 0.4206 0.8642
vn -0.6168 -0.7400 0.2683
vn -0.5316 0.2585 0.8065
vn 0.5757 0.7870 -0.2216
vn -0.3489 -0.2039 0.9147
vn 0.3987 0.3047 0.8650
vn 0.2186 0.1793 -0.9592
vn -0.8145 -0.5132 0.2705
vn 0.7934 0.5654 -0.2255
vn -0.7569 -0.5890 0.2830
vn -0.7153 0.6499 0.2570
vn -0.4495 0.4325 -0.7816
vn 0.2577 -0.1444 -0.9554
vn -0.3012 0.3098 0.9018
vn 0.7846 -0.5746 -0.2330
vn 0.4082 -0.2666 0.8731
vn -0.4665 0.4863 -0.7388
vn 0.2526 -0.1960 -0.9475
vn -0.6844 0.7148 0.1436
vn -0.3403 0.3680 0.8653
vn 0.7501 -0.6452 -0.1450
vn 0.3949 -0.3285 0.8580
vn 0.9814 -0.0543 -0.1841
vn -0.9453 0.2500 0.2095
vn -0.6213 0.1906 -0.7601
vn 0.4928 0.0203 0.8699
vn -0.4387 0.1628 0.8837
vn 0.3045 0.0433 -0.9515
vn -0.5264 -0.3675 -0.7667
vn 0.2891 0.4129 0.8636
vn -0.3520 -0.2004 0.9143
vn 0.6364 0.7376 -0.2257
vn 0.1340 0.2680 -0.9541
vn -0.3886 0.2009 -0.8992
vn 0.6089 -0.0924 0.7879
vn -0.1319 0.1245 -0.9834
vn 0.9428 -0.2000 0.2668
vn -0.6085 0.2775 -0.7435
vn -0.7833 0.3181 0.5341
vn 0.7716 -0.1553 -0.6168
vn 0.7994 0.0389 -0.5996
vn -0.1755 0.1111 -0.9782
vn -0.4340 0.1356 -0.8907
vn -0.5864 0.1665 0.7927
vn 0.5996 0.0674 0.7974
vn 0.9704 0.0128 0.2412
vn -0.6414 0.1672 -0.7488
vn -0.8266 0.1866 0.5310
vn 0.7410 0.6256 -0.2440
vn 0.1622 0.2369 -0.9579
vn -0.3896 -0.1449 0.9095
vn -0.8453 -0.4483 0.2907
vn 0.3478 0.3608 0.8654
vn -0.6034 -0.2795 -0.7468
vn -0.8143 0.0726 -0.5759
vn 0.2663 0.9541 -0.1372
vn -0.0448 0.6463 0.7617
vn -0.9547 -0.0961 0.2816
vn -0.1938 0.6071 -0.7706
vn -0.5727 0.1826 0.7992
vn 0.4644 0.6347 0.6176
vn -0.3697 0.5363 -0.7588
vn -0.4769 0.5974 0.6447
vn -0.1480 0.5458 -0.8247
vn 0.6335 0.6106 -0.4752
vn -0.6854 0.5799 0.4403
vn -0.5293 0.5814 -0.6179
vn 0.7730 0.6046 0.1921
vn -0.3006 0.7368 0.6056
vn -0.6687 0.7286 0.1483
vn 0.6394 0.7594 -0.1199
vn -0.4301 0.7336 -0.5261
vn 0.3228 0.7558 0.5697
vn 0.1973 0.7623 -0.6164
vn -0.1372 0.2280 -0.9639
vn 0.7499 0.2158 -0.6254
vn 0.9673 0.0333 0.2516
vn 0.5863 -0.1321 0.7993
vn -0.6036 -0.2019 0.7713
vn -0.8202 -0.1240 0.5585
vn -0.6764 0.1178 -0.7270
vn -0.4091 0.2288 -0.8833
vn -0.2514 0.4652 -0.8488
vn -0.0599 -0.0178 -0.9980
vn -0.9080 0.4148 -0.0593
vn -0.9693 0.1880 -0.1583
vn -0.9706 0.2402 0.0158
vn -0.9341 0.2114 0.2876
vn -0.4270 0.0416 0.9033
vn -0.2294 0.1452 0.9624
vn 0.6867 0.1014 0.7198
vn 0.6966 -0.0312 0.7168
vn 0.8484 -0.0294 0.5285
vn 0.8484 -0.0711 0.5245
vn 0.9628 0.1144 -0.2447
vn 0.9629 -0.1079 -0.2474
vn 0.1869 0.4420 -0.8773
vn 0.2817 -0.0264 -0.9591
vn 0.3044 0.2448 -0.9205
vn 0.9083 0.3242 -0.2645
vn 0.9061 0.3795 0.1869
vn 0.4148 0.4513 0.7901
vn -0.3641 0.3153 0.8764
vn -0.8858 0.3624 0.2899
vn -0.8679 0.4179 -0.2685
vn -0.3004 0.2212 -0.9278
vn 0.1686 -0.0305 -0.9852
vn 0.9750 0.1049 -0.1959
vn 0.8946 0.1606 0.4170
vn 0.7417 0.1401 0.6559
vn -0.4106 0.0679 0.9093
vn -0.9664 -0.0003 0.2570
vn -0.9610 -0.1046 -0.2561
vn -0.2689 -0.0834 -0.9595
vn 0.9004 -0.3513 -0.2567
vn -0.2452 0.4618 0.8524
vn 0.0964 -0.2921 -0.9515
vn -0.8653 0.4045 0.2960
vn 0.5193 -0.1179 0.8464
vn -0.6390 0.7353 0.2257
vn 0.5258 -0.3820 0.7600
vn -0.6261 0.1985 -0.7540
vn -0.4790 0.3285 -0.8140
vn 0.6707 -0.7410 0.0313
vn -0.3392 0.2595 0.9042
vn 0.2313 -0.1797 -0.9562
vn 0.6301 0.7525 -0.1913
vn -0.3423 -0.2828 0.8960
vn 0.1176 0.2784 -0.9532
vn -0.6624 -0.7086 0.2431
vn 0.4348 0.2542 0.8639
vn -0.8716 -0.4709 0.1359
vn 0.6109 0.2585 0.7483
vn -0.5248 -0.3469 -0.7774
vn -0.5965 -0.1590 -0.7867
vn 0.8477 0.5072 -0.1553
vn -0.2261 -0.4123 0.8826
vn 0.1143 0.3503 -0.9296
vn 0.6041 0.2125 0.7681
vn -0.6027 -0.1001 0.7917
vn -0.1768 0.0019 -0.9843
vn -0.8137 -0.1527 0.5608
vn -0.6129 -0.1040 -0.7833
vn 0.9121 0.2855 0.2941
vn -0.4427 -0.0651 -0.8943
vn 0.7408 0.2433 -0.6261
vn -0.2933 -0.3025 0.9069
vn -0.5610 -0.3426 -0.7536
vn -0.4158 -0.4733 -0.7766
vn 0.1570 0.2805 -0.9469
vn 0.2919 0.4332 0.8527
vn -0.6274 -0.7424 0.2348
vn -0.5404 0.2630 0.7993
vn 0.5737 0.7998 -0.1765
vn -0.3519 -0.2053 0.9133
vn 0.4085 0.3088 0.8589
vn 0.2129 0.1739 -0.9615
vn -0.8079 -0.5127 0.2905
vn 0.7905 0.5551 -0.2588
vn -0.7635 -0.5917 0.2588
vn -0.4253 0.4585 -0.7803
vn 0.2309 -0.1801 -0.9562
vn -0.6788 0.6916 0.2468
vn -0.2967 0.3156 0.9013
vn 0.7321 -0.6443 -0.2211
vn 0.3758 -0.3051 0.8751
vn 0.9668 -0.0607 -0.2484
vn -0.9329 0.2416 0.2670
vn -0.5939 0.1898 -0.7819
vn 0.5046 0.0171 0.8632
vn -0.4031 0.1535 0.9022
vn 0.3086 0.0431 -0.9502
vn -0.5164 -0.3551 -0.7793
vn 0.3066 0.4265 0.8509
vn -0.3509 -0.1995 0.9149
vn 0.6392 0.7469 -0.1833
vn 0.1584 0.2963 -0.9419
vn -0.4048 0.2038 -0.8914
vn 0.5937 -0.0831 0.8004
vn -0.1494 0.1269 -0.9806
vn 0.9536 -0.2148 0.2111
vn -0.6769 0.2935 -0.6751
vn -0.8115 0.3416 0.4742
vn 0.7981 -0.1554 -0.5821
vn 0.7788 0.0378 -0.6262
vn -0.1390 0.1114 -0.9840
vn -0.4178 0.1350 -0.8985
vn -0.5757 0.1650 0.8008
vn 0.6525 0.0545 0.7558
vn 0.9540 0.0195 0.2991
vn -0.6143 0.1644 -0.7717
vn -0.8119 0.1813 0.5549
vn 0.7408 0.6251 -0.2459
vn 0.1613 0.2361 -0.9583
vn -0.3911 -0.1456 0.9088
vn -0.8452 -0.4483 0.2911
vn 0.3479 0.3609 0.8653
vn -0.6055 -0.2815 -0.7444
vt 0.000000 0.000000
vt 1.000000 1.000000
vt 0.000000 1.000000
vt 1.000000 0.000000
s 0
usemtl Material.003
f 18/1/1 4/2/1 19/3/1
f 19/1/2 6/2/2 21/3/2
f 21/1/3 8/2/3 23/3/3
f 23/1/4 10/2/4 25/3/4
f 25/1/5 12/2/5 27/3/5
f 27/1/6 14/2/6 29/3/6
f 29/1/7 16/2/7 31/3/7
f 31/1/8 2/2/8 18/3/8
f 39/1/9 17/2/9 40/3/9
f 48/1/10 18/2/10 41/3/10
f 38/1/11 32/2/11 39/3/11
f 47/1/12 31/2/12 48/3/12
f 37/1/13 30/2/13 38/3/13
f 46/1/14 29/2/14 47/3/14
f 36/1/15 28/2/15 37/3/15
f 45/1/16 27/2/16 46/3/16
f 35/1/17 26/2/17 36/3/17
f 44/1/18 25/2/18 45/3/18
f 34/1/19 24/2/19 35/3/19
f 43/1/20 23/2/20 44/3/20
f 33/1/21 22/2/21 34/3/21
f 42/1/22 21/2/22 43/3/22
f 40/1/23 20/2/23 33/3/23
f 41/1/24 19/2/24 42/3/24
f 1/1/25 33/2/25 3/3/25
f 3/1/26 34/2/26 5/3/26
f 5/1/27 35/2/27 7/3/27
f 7/1/28 36/2/28 9/3/28
f 9/1/29 37/2/29 11/3/29
f 11/1/30 38/2/30 13/3/30
f 13/1/31 39/2/31 15/3/31
f 15/1/32 40/2/32 1/3/32
f 17/1/33 42/2/33 20/3/33
f 20/1/34 43/2/34 22/3/34
f 22/1/35 44/2/35 24/3/35
f 24/1/36 45/2/36 26/3/36
f 26/1/37 46/2/37 28/3/37
f 28/1/38 47/2/38 30/3/38
f 30/1/39 48/2/39 32/3/39
f 32/1/40 41/2/40 17/3/40
f 58/1/41 59/2/41 60/3/41
f 54/1/42 64/2/42 55/3/42
f 51/1/43 58/2/43 52/3/43
f 64/1/44 65/2/44 66/3/44
f 60/1/45 61/2/45 62/3/45
f 55/1/46 66/2/46 56/3/46
f 53/1/47 62/2/47 54/3/47
f 66/1/48 49/2/48 50/3/48
f 56/1/49 50/2/49 51/3/49
f 52/1/50 60/2/50 53/3/50
f 62/1/51 63/2/51 64/3/51
f 50/1/52 57/2/52 58/3/52
f 76/1/53 77/2/53 78/3/53
f 72/1/54 82/2/54 73/3/54
f 69/1/55 76/2/55 70/3/55
f 82/1/56 83/2/56 84/3/56
f 78/1/57 79/2/57 80/3/57
f 73/1/58 84/2/58 74/3/58
f 71/1/59 80/2/59 72/3/59
f 84/1/60 67/2/60 68/3/60
f 74/1/61 68/2/61 69/3/61
f 70/1/62 78/2/62 71/3/62
f 80/1/63 81/2/63 82/3/63
f 68/1/64 75/2/64 76/3/64
f 2/1/65 92/2/65 85/3/65
f 4/1/66 85/2/66 86/3/66
f 8/1/67 87/2/67 88/3/67
f 14/1/68 90/2/68 91/3/68
f 10/1/69 88/2/69 89/3/69
f 16/1/70 91/2/70 92/3/70
f 6/1/71 86/2/71 87/3/71
f 12/1/72 89/2/72 90/3/72
f 89/1/73 97/2/73 96/3/73
f 90/1/74 96/2/74 95/3/74
f 86/1/75 100/2/75 99/3/75
f 91/1/76 95/2/76 94/3/76
f 92/1/77 94/2/77 93/3/77
f 88/1/78 98/2/78 97/3/78
f 85/1/79 93/2/79 100/3/79
f 87/1/80 99/2/80 98/3/80
f 81/1/81 105/2/81 104/3/81
f 108/1/82 112/2/82 101/3/82
f 67/1/83 103/2/83 108/3/83
f 75/1/84 108/2/84 107/3/84
f 79/1/85 106/2/85 105/3/85
f 83/1/86 104/2/86 103/3/86
f 95/1/87 130/2/87 129/3/87
f 77/1/88 107/2/88 106/3/88
f 104/1/89 110/2/89 111/3/89
f 105/1/90 109/2/90 110/3/90
f 107/1/91 101/2/91 102/3/91
f 103/1/92 111/2/92 112/3/92
f 106/1/93 102/2/93 109/3/93
f 112/1/94 139/2/94 140/3/94
f 65/1/95 114/2/95 113/3/95
f 49/1/96 113/2/96 118/3/96
f 57/1/97 118/2/97 117/3/97
f 63/1/98 115/2/98 114/3/98
f 59/1/99 117/2/99 116/3/99
f 61/1/100 116/2/100 115/3/100
f 118/1/101 119/2/101 124/3/101
f 117/1/102 124/2/102 123/3/102
f 113/1/103 120/2/103 119/3/103
f 114/1/104 121/2/104 120/3/104
f 116/1/105 123/2/105 122/3/105
f 115/1/106 122/2/106 121/3/106
f 122/1/107 158/2/107 157/3/107
f 119/1/108 155/2/108 125/3/108
f 124/1/109 125/2/109 159/3/109
f 121/1/110 157/2/110 156/3/110
f 120/1/111 156/2/111 155/3/111
f 123/1/112 159/2/112 158/3/112
f 101/1/113 140/2/113 126/3/113
f 110/1/114 137/2/114 138/3/114
f 111/1/115 138/2/115 139/3/115
f 109/1/116 136/2/116 137/3/116
f 102/1/117 126/2/117 136/3/117
f 100/1/118 127/2/118 134/3/118
f 96/1/119 131/2/119 130/3/119
f 99/1/120 134/2/120 133/3/120
f 97/1/121 132/2/121 131/3/121
f 93/1/122 128/2/122 127/3/122
f 94/1/123 129/2/123 128/3/123
f 98/1/124 133/2/124 132/3/124
f 132/1/125 153/2/125 152/3/125
f 133/1/126 154/2/126 153/3/126
f 134/1/127 135/2/127 154/3/127
f 129/1/128 150/2/128 149/3/128
f 130/1/129 151/2/129 150/3/129
f 131/1/130 152/2/130 151/3/130
f 127/1/131 148/2/131 135/3/131
f 128/1/132 149/2/132 148/3/132
f 137/1/133 142/2/133 143/3/133
f 136/1/134 141/2/134 142/3/134
f 139/1/135 144/2/135 145/3/135
f 140/1/136 145/2/136 146/3/136
f 138/1/137 143/2/137 144/3/137
f 126/1/138 146/2/138 141/3/138
f 141/1/139 146/4/139 147/2/139
f 143/1/140 142/4/140 147/2/140
f 144/1/141 143/4/141 147/2/141
f 146/1/142 145/4/142 147/2/142
f 142/1/143 141/4/143 147/2/143
f 145/1/144 144/4/144 147/2/144
f 150/1/145 151/4/145 160/2/145
f 154/1/146 135/4/146 160/2/146
f 149/1/147 150/4/147 160/2/147
f 153/1/148 154/4/148 160/2/148
f 152/1/149 153/4/149 160/2/149
f 148/1/150 149/4/150 160/2/150
f 135/1/151 148/4/151 160/2/151
f 151/1/152 152/4/152 160/2/152
f 155/1/153 156/4/153 161/2/153
f 125/1/154 155/4/154 161/2/154
f 157/1/155 158/4/155 161/2/155
f 159/1/156 125/4/156 161/2/156
f 156/1/157 157/4/157 161/2/157
f 158/1/158 159/4/158 161/2/158
f 18/1/159 2/4/159 4/2/159
f 19/1/160 4/4/160 6/2/160
f 21/1/161 6/4/161 8/2/161
f 23/1/162 8/4/162 10/2/162
f 25/1/163 10/4/163 12/2/163
f 27/1/164 12/4/164 14/2/164
f 29/1/165 14/4/165 16/2/165
f 31/1/166 16/4/166 2/2/166
f 39/1/167 32/4/167 17/2/167
f 48/1/168 31/4/168 18/2/168
f 38/1/169 30/4/169 32/2/169
f 47/1/170 29/4/170 31/2/170
f 37/1/171 28/4/171 30/2/171
f 46/1/172 27/4/172 29/2/172
f 36/1/173 26/4/173 28/2/173
f 45/1/174 25/4/174 27/2/174
f 35/1/175 24/4/175 26/2/175
f 44/1/176 23/4/176 25/2/176
f 34/1/177 22/4/177 24/2/177
f 43/1/178 21/4/178 23/2/178
f 33/1/179 20/4/179 22/2/179
f 42/1/180 19/4/180 21/2/180
f 40/1/181 17/4/181 20/2/181
f 41/1/182 18/4/182 19/2/182
f 1/1/183 40/4/183 33/2/183
f 3/1/184 33/4/184 34/2/184
f 5/1/185 34/4/185 35/2/185
f 7/1/186 35/4/186 36/2/186
f 9/1/187 36/4/187 37/2/187
f 11/1/188 37/4/188 38/2/188
f 13/1/189 38/4/189 39/2/189
f 15/1/190 39/4/190 40/2/190
f 17/1/191 41/4/191 42/2/191
f 20/1/192 42/4/192 43/2/192
f 22/1/193 43/4/193 44/2/193
f 24/1/194 44/4/194 45/2/194
f 26/1/195 45/4/195 46/2/195
f 28/1/196 46/4/196 47/2/196
f 30/1/197 47/4/197 48/2/197
f 32/1/198 48/4/198 41/2/198
f 58/1/199 57/4/199 59/2/199
f 54/1/200 62/4/200 64/2/200
f 51/1/201 50/4/201 58/2/201
f 64/1/202 63/4/202 65/2/202
f 60/1/203 59/4/203 61/2/203
f 55/1/204 64/4/204 66/2/204
f 53/1/205 60/4/205 62/2/205
f 66/1/206 65/4/206 49/2/206
f 56/1/207 66/4/207 50/2/207
f 52/1/208 58/4/208 60/2/208
f 62/1/209 61/4/209 63/2/209
f 50/1/210 49/4/210 57/2/210
f 76/1/211 75/4/211 77/2/211
f 72/1/212 80/4/212 82/2/212
f 69/1/213 68/4/213 76/2/213
f 82/1/214 81/4/214 83/2/214
f 78/1/215 77/4/215 79/2/215
f 73/1/216 82/4/216 84/2/216
f 71/1/217 78/4/217 80/2/217
f 84/1/218 83/4/218 67/2/218
f 74/1/219 84/4/219 68/2/219
f 70/1/220 76/4/220 78/2/220
f 80/1/221 79/4/221 81/2/221
f 68/1/222 67/4/222 75/2/222
f 2/1/65 16/4/65 92/2/65
f 4/1/66 2/4/66 85/2/66
f 8/1/67 6/4/67 87/2/67
f 14/1/68 12/4/68 90/2/68
f 10/1/69 8/4/69 88/2/69
f 16/1/70 14/4/70 91/2/70
f 6/1/71 4/4/71 86/2/71
f 12/1/72 10/4/72 89/2/72
f 89/1/223 88/4/223 97/2/223
f 90/1/224 89/4/224 96/2/224
f 86/1/225 85/4/225 100/2/225
f 91/1/226 90/4/226 95/2/226
f 92/1/227 91/4/227 94/2/227
f 88/1/228 87/4/228 98/2/228
f 85/1/229 92/4/229 93/2/229
f 87/1/230 86/4/230 99/2/230
f 81/1/231 79/4/231 105/2/231
f 108/1/232 103/4/232 112/2/232
f 67/1/233 83/4/233 103/2/233
f 75/1/234 67/4/234 108/2/234
f 79/1/235 77/4/235 106/2/235
f 83/1/236 81/4/236 104/2/236
f 95/1/237 96/4/237 130/2/237
f 77/1/238 75/4/238 107/2/238
f 104/1/239 105/4/239 110/2/239
f 105/1/240 106/4/240 109/2/240
f 107/1/241 108/4/241 101/2/241
f 103/1/242 104/4/242 111/2/242
f 106/1/243 107/4/243 102/2/243
f 112/1/244 111/4/244 139/2/244
f 65/1/95 63/4/95 114/2/95
f 49/1/96 65/4/96 113/2/96
f 57/1/97 49/4/97 118/2/97
f 63/1/98 61/4/98 115/2/98
f 59/1/99 57/4/99 117/2/99
f 61/1/100 59/4/100 116/2/100
f 118/1/245 113/4/245 119/2/245
f 117/1/246 118/4/246 124/2/246
f 113/1/247 114/4/247 120/2/247
f 114/1/248 115/4/248 121/2/248
f 116/1/249 117/4/249 123/2/249
f 115/1/250 116/4/250 122/2/250
f 122/1/251 123/4/251 158/2/251
f 119/1/252 120/4/252 155/2/252
f 124/1/253 119/4/253 125/2/253
f 121/1/254 122/4/254 157/2/254
f 120/1/255 121/4/255 156/2/255
f 123/1/256 124/4/256 159/2/256
f 101/1/257 112/4/257 140/2/257
f 110/1/258 109/4/258 137/2/258
f 111/1/259 110/4/259 138/2/259
f 109/1/260 102/4/260 136/2/260
f 102/1/261 101/4/261 126/2/261
f 100/1/262 93/4/262 127/2/262
f 96/1/263 97/4/263 131/2/263
f 99/1/264 100/4/264 134/2/264
f 97/1/265 98/4/265 132/2/265
f 93/1/266 94/4/266 128/2/266
f 94/1/267 95/4/267 129/2/267
f 98/1/268 99/4/268 133/2/268
f 132/1/269 133/4/269 153/2/269
f 133/1/270 134/4/270 154/2/270
f 134/1/271 127/4/271 135/2/271
f 129/1/272 130/4/272 150/2/272
f 130/1/273 131/4/273 151/2/273
f 131/1/274 132/4/274 152/2/274
f 127/1/275 128/4/275 148/2/275
f 128/1/276 129/4/276 149/2/276
f 137/1/277 136/4/277 142/2/277
f 136/1/278 126/4/278 141/2/278
f 139/1/279 138/4/279 144/2/279
f 140/1/280 139/4/280 145/2/280
f 138/1/281 137/4/281 143/2/281
f 126/1/282 140/4/282 146/2/282
